<svg width="54" height="94" viewBox="0 0 54 94" fill="none" xmlns="http://www.w3.org/2000/svg">
    <path d="M49.3 26.6H48.3C47.2 25.6 46.1 24.7 44.9 23.8L53.6 1.4L50.1 0L41.6 21.7C41.1 21.4 40.7 21.2 40.2 21C39.7 20.8 39.5 20.4 39.4 19.9C39.1 18.6 38 17.8 36.7 17.8C36.2 17.8 35.9 17.9 35.5 18.1C35.1 18.3 34.7 18.2 34.4 17.9C33.9 17 32.9 16.5 31.8 16.5C31.1 16.5 30.5 16.7 30 17.1C29.8 17.3 29.5 17.5 29.3 17.7C29.1 17.9 28.8 18.1 28.5 18.1C28 18.1 27.7 17.7 27.6 17.2C27.6 17 27.5 16.8 27.5 16.7C27 15.3 25.7 14.3 24.3 14.3C22.5 14.3 21.1 15.6 20.9 17.4C20.9 17.6 20.6 17.6 20.4 17.5C19.8 16.9 18.9 16.5 18 16.5C16.6 16.5 14.5 17.5 14.6 20C14.6 20.6 14.2 21.1 13.7 21.3C13.1 21.5 8.7 23.3 4.7 26.7H4.3C1.9 26.7 0 28.6 0 31C0 32.9 1.2 34.5 2.9 35.1L7.8 91.1L8 93.8H10.7H42.3H45L45.2 91.1L50 35.3C52 34.9 53.6 33.2 53.6 31C53.6 28.5 51.7 26.6 49.3 26.6ZM50.7 30.9C50.7 31.3 50.6 31.6 50.3 31.8C50 32.1 49.7 32.3 49.3 32.3H4.3C3.8 32.3 3.4 32 3.1 31.6C3 31.4 2.9 31.1 2.9 30.9C2.9 30.5 3.1 30.1 3.3 29.9C3.6 29.7 3.9 29.5 4.3 29.5H49.3C49.7 29.5 50 29.6 50.3 29.9C50.5 30.1 50.7 30.5 50.7 30.9ZM36.3 19.5C36.5 19.4 36.5 19.4 36.7 19.4C37.2 19.4 37.5 19.6 37.8 20C38 20.2 38 20.5 38 20.7C38 21.4 37.5 22 36.8 22C36.1 22 35.6 21.4 35.6 20.7C35.4 20.2 35.8 19.6 36.3 19.5ZM30.9 18.3C31.1 18.1 31.4 18.1 31.7 18.1C32.2 18.1 32.6 18.3 32.9 18.7C33.1 19 33.3 19.4 33.3 19.8C33.3 20.8 32.5 21.5 31.7 21.5C30.9 21.5 30.1 20.7 30.1 19.8C30.1 19.1 30.4 18.6 30.9 18.3ZM28.1 23.2C28.1 24.2 27.3 25.1 26.3 25.1C25.3 25.1 24.5 24.2 24.5 23.2C24.5 22.2 25.3 21.3 26.3 21.3C27.2 21.2 28.1 22.2 28.1 23.2ZM24.2 15.9C25.2 15.9 26 16.8 26 17.8C26 17.9 26 18 26 18C25.9 19 25.1 19.7 24.2 19.7C23.4 19.7 22.6 19.1 22.4 18.3C22.3 18.1 22.3 18 22.3 17.8C22.4 16.8 23.2 15.9 24.2 15.9ZM18.1 18C18.7 18 19.3 18.3 19.6 18.8C19.8 19.1 19.9 19.4 19.9 19.8C19.9 20.8 19.1 21.7 18.1 21.7C17.1 21.7 16.3 20.8 16.3 19.8C16.3 18.8 17.1 18 18.1 18ZM42.3 90.7H10.7L5.9 35.3H47.1L42.3 90.7Z" fill="#ffffff"/>
</svg>
